PathFileType	4	(X/Y/Z)	s09c0102.trc
DataRate	CameraRate	NumFrames	NumMarkers	Units	OrigDataRate	OrigDataStartFrame	OrigNumFrames
200	200	4	50	mm	200	1750	2000
Frame#	Time	racr			lacr			c7			jug			rlel			rdr			llel			ldr			s2			lic			ric			lasi			rasi			rpsi			lpsi			rgt			lgt			rth1			rth2			rth3			rth4			rlfc			rmfc			rsh1			rsh2			rsh3			rsh4			rlmal			rmmal			rcal			rtoe			rmt5			lth1			lth2			lth4			lth3			llfc			lmfc			llmal			lmmal			lcal			lmt5			lsh1			lsh2			lsh3			lsh4			ltoe			SBIKE			LBIKE			RBIKE			
		X1	Y1	Z1	X2	Y2	Z2	X3	Y3	Z3	X4	Y4	Z4	X5	Y5	Z5	X6	Y6	Z6	X7	Y7	Z7	X8	Y8	Z8	X9	Y9	Z9	X10	Y10	Z10	X11	Y11	Z11	X12	Y12	Z12	X13	Y13	Z13	X14	Y14	Z14	X15	Y15	Z15	X16	Y16	Z16	X17	Y17	Z17	X18	Y18	Z18	X19	Y19	Z19	X20	Y20	Z20	X21	Y21	Z21	X22	Y22	Z22	X23	Y23	Z23	X24	Y24	Z24	X25	Y25	Z25	X26	Y26	Z26	X27	Y27	Z27	X28	Y28	Z28	X29	Y29	Z29	X30	Y30	Z30	X31	Y31	Z31	X32	Y32	Z32	X33	Y33	Z33	X34	Y34	Z34	X35	Y35	Z35	X36	Y36	Z36	X37	Y37	Z37	X38	Y38	Z38	X39	Y39	Z39	X40	Y40	Z40	X41	Y41	Z41	X42	Y42	Z42	X43	Y43	Z43	X44	Y44	Z44	X45	Y45	Z45	X46	Y46	Z46	X47	Y47	Z47	X48	Y48	Z48	X49	Y49	Z49	X50	Y50	Z50	
1750	8.7500	553.152872	1224.682055	-107.963918	545.385322	1213.781950	-411.038991	531.810290	1259.885052	-256.076344	491.501767	1125.773244	-254.338259	519.460443	1017.764569	35.747683	706.605271	878.122889	-36.611174	494.583255	1002.301549	-576.485375	683.354569	886.836069	-461.424530	27.929255	1138.620744	-219.375830	150.923305	1143.198155	-381.945979	177.744741	1115.402452	-79.472926	189.274745	1081.763795	-358.822280	215.010058	1063.204511	-107.069858	65.039195	1161.003592	-162.195259	53.880993	1177.976520	-267.658360	140.160594	970.616400	-48.549593	127.670948	1049.705784	-429.631641	217.120060	856.775713	-57.543018	281.080708	796.248079	-61.123524	300.800118	709.511815	-71.825091	309.458481	811.951650	-78.783389	333.150250	616.597776	-101.261842	319.731368	597.141567	-198.203849	276.728611	533.836926	-69.325244	265.245186	445.511336	-81.208386	212.096127	376.013177	-80.216872	290.683509	438.555652	-110.774112	169.280715	285.227550	-78.758305	176.381558	289.894171	-154.579361	88.325329	291.045167	-116.762061	302.082003	134.830263	-129.662276	227.810629	166.703309	-61.190930	256.324188	1000.705463	-416.753907	340.715106	1000.365049	-405.552835	349.580350	1030.953188	-384.862289	418.846567	956.386324	-409.900655	503.604373	898.970779	-390.297222	512.202967	880.182746	-286.379272	313.455480	581.657725	-411.586117	330.438995	585.027943	-339.365463	233.302301	563.489429	-374.434935	383.044983	473.471318	-432.157785	455.964061	814.954384	-412.678355	430.974754	732.225499	-409.570570	365.483139	671.187298	-411.301494	454.163868	718.384650	-380.226165	473.332679	463.045288	-362.201523	-65.172970	852.596608	-240.196939	21.108447	84.028240	-442.083883	21.133670	83.997753	-43.909094	
1751	8.7550	552.743577	1224.152461	-107.093384	546.150565	1213.721036	-410.022981	532.315933	1259.544391	-255.041675	491.256985	1125.495336	-253.179465	518.968237	1017.025022	36.144447	706.423308	877.931066	-36.217766	494.029414	1002.838944	-576.195630	682.988217	887.370727	-461.279769	27.991016	1139.563468	-219.866038	151.200144	1143.820965	-382.181844	177.237333	1115.954558	-79.840432	189.766776	1081.985995	-359.524008	214.518886	1063.576270	-107.282049	64.893544	1161.822779	-162.746636	55.021702	1178.354014	-268.349853	139.763223	971.335128	-48.829719	127.957113	1049.950687	-429.916134	218.399848	858.038490	-57.832229	282.702712	798.348806	-60.874933	303.464524	711.862921	-71.779524	311.052726	814.351928	-78.360028	336.397231	618.614976	-101.148520	322.409829	599.853353	-198.176927	277.874593	537.329005	-69.288478	263.900696	449.371134	-81.299975	208.835386	381.315009	-80.254939	288.920406	441.634738	-111.110617	163.656972	291.613057	-78.783853	170.615572	296.209669	-154.650399	82.690144	299.377851	-116.965546	292.815844	138.123913	-129.575193	219.298505	171.935342	-61.194517	256.568381	998.535951	-416.553438	340.942354	997.161207	-405.216573	350.194609	1027.737021	-384.732809	418.559698	952.046703	-409.074232	503.021591	893.808167	-389.078141	512.922670	874.799094	-286.940060	318.121929	573.073012	-411.614210	333.958883	577.980644	-337.719709	237.618493	552.342483	-374.810618	390.815729	467.834172	-432.591214	456.428933	809.098766	-411.914237	432.603101	725.315426	-408.453401	368.387974	663.722328	-411.123813	456.088955	712.416147	-379.536747	481.355590	460.974234	-362.265490	-65.170020	852.597806	-240.178186	21.105661	84.010831	-442.090808	21.138942	84.001863	-43.914278	
1752	8.7600	552.237807	1223.722454	-105.993967	546.935757	1213.565916	-408.871230	532.860103	1259.162232	-253.645142	490.977660	1125.304843	-251.835320	518.336773	1016.237706	36.640938	705.999313	877.818596	-35.670620	493.368487	1003.262784	-575.562128	682.612768	887.867437	-461.008047	28.099482	1140.187202	-220.366642	151.627522	1144.412268	-382.662708	176.691774	1116.371456	-80.125477	190.349106	1082.087156	-360.378476	213.922670	1063.915899	-107.506797	64.672292	1162.479908	-163.452128	56.451510	1178.415784	-269.066055	139.507486	972.066884	-49.066109	128.283883	1049.695740	-430.067181	219.202720	859.694314	-57.711779	284.585496	800.664713	-60.790590	306.386853	714.480473	-71.660802	312.833041	817.149701	-78.129743	339.831451	621.097834	-101.144067	325.564646	602.661405	-197.844224	279.324388	540.966206	-69.201677	262.882274	453.499753	-81.380633	205.947559	387.063272	-80.298948	287.717757	445.292099	-111.134432	158.295750	298.615601	-78.897929	165.527441	302.988839	-154.847150	77.603093	308.066897	-117.045047	283.876740	142.176253	-129.394445	211.145038	177.678318	-61.152094	256.804982	995.586689	-416.514532	341.140870	993.059061	-405.113461	350.963102	1023.592205	-384.693385	418.997519	946.361229	-408.171449	502.303782	887.714017	-387.839224	511.991190	868.819877	-286.027759	322.424519	563.763940	-411.579321	337.391950	569.175114	-337.354847	241.943387	540.592621	-375.579930	397.935500	461.756380	-433.205378	456.803360	802.160557	-411.813342	434.136088	717.755513	-407.844094	370.957953	655.242201	-410.956350	457.686060	705.504743	-378.772756	488.857884	458.423810	-362.434333	-65.153990	852.612196	-240.155342	21.102335	84.026671	-442.108758	21.123613	84.013050	-43.920514	
1753	8.7650	551.582307	1223.516730	-104.696148	547.869643	1213.382827	-407.607674	533.444948	1258.764314	-251.836031	490.637234	1125.101612	-250.392637	517.796474	1015.490172	37.161123	705.877751	877.585155	-35.063906	492.684727	1003.629948	-574.796209	682.124994	888.309703	-460.526911	28.215242	1140.712488	-221.015964	152.138240	1144.800255	-383.297250	175.997845	1116.689909	-80.558392	191.020659	1082.045933	-361.317101	213.094299	1064.204305	-108.067491	64.475235	1163.012056	-164.088724	56.886449	1178.887318	-269.735601	139.628342	972.831336	-49.042760	128.653441	1048.779826	-430.017435	220.846682	861.320289	-57.712572	286.733786	803.213818	-60.804708	309.770252	717.366143	-71.397287	314.718950	820.205268	-78.027887	343.610712	623.674370	-101.025539	328.999607	605.533873	-197.380016	280.999136	544.958620	-69.090930	262.109320	457.962572	-81.446063	203.261746	393.279159	-80.206103	286.611166	449.130560	-111.303367	153.370261	305.839521	-78.891831	160.852668	310.215796	-155.027352	72.831102	317.321776	-117.256485	275.728913	147.147129	-128.891161	203.328539	183.967539	-61.119716	257.010105	992.032349	-416.553554	341.429162	988.018770	-404.908187	351.629168	1018.717584	-384.955978	418.237917	940.643030	-408.858333	501.858692	880.730008	-385.955766	511.276771	861.012160	-285.538485	326.151931	553.607911	-411.590841	340.513576	559.600241	-337.166941	246.082013	527.585554	-375.543541	404.764773	454.892613	-433.503462	456.767060	794.057506	-411.406239	435.339587	709.203195	-407.460988	373.092507	645.828851	-410.816917	458.728601	697.308728	-378.130554	495.818912	455.379291	-362.625491	-65.072081	852.558497	-240.179612	21.102227	84.025957	-442.107475	21.140463	84.014968	-43.915272	
